<svg viewBox="0 0 284 288" fill="none" xmlns="http://www.w3.org/2000/svg">
<circle cx="240.5" cy="240.5" r="239.5" stroke="#FBDC84" stroke-width="2"/>
<path d="M417.554 240.5C417.554 339.221 337.902 419.242 239.656 419.242C141.41 419.242 61.7578 339.221 61.7578 240.5C61.7578 141.779 141.41 61.7578 239.656 61.7578C337.902 61.7578 417.554 141.779 417.554 240.5Z" stroke="#FBDC84" stroke-width="2"/>
<path d="M378.737 240.5C378.737 317.784 316.462 380.424 239.656 380.424C162.849 380.424 100.575 317.784 100.575 240.5C100.575 163.216 162.849 100.575 239.656 100.575C316.462 100.575 378.737 163.216 378.737 240.5Z" stroke="#FBDC84" stroke-width="2"/>
<circle cx="240.5" cy="240.5" r="212.496" stroke="#FBDC84" stroke-width="2"/>
<circle cx="240.5" cy="240.5" r="212.496" stroke="#FBDC84" stroke-width="2"/>
<circle cx="240.5" cy="240.5" r="212.496" stroke="#FBDC84" stroke-width="2"/>
<path fill-rule="evenodd" clip-rule="evenodd" d="M220.893 240.5L207.589 227.196L227.196 207.589L240.5 220.893L253.803 207.589L273.41 227.196L260.107 240.5L273.41 253.803L253.803 273.41L240.5 260.107L227.196 273.41L207.589 253.803L220.893 240.5Z" fill="#FBDC84"/>
</svg>
