<svg xmlns="http://www.w3.org/2000/svg" viewBox="0 0 658.22 658.22"><defs><style>.cls-1{fill:#160000;}</style></defs><g id="Layer_2" data-name="Layer 2"><g id="Layer_1-2" data-name="Layer 1"><path class="cls-1" d="M0,322.47H322.47V0C144.38,0,0,144.38,0,322.47Zm251.2-65.9H98.84A152.37,152.37,0,0,1,251.2,104.2Z"/><path class="cls-1" d="M658.22,335.75H335.75V658.22C513.84,658.22,658.22,513.84,658.22,335.75ZM407,401.65H559.38A152.37,152.37,0,0,1,407,554Z"/><path class="cls-1" d="M658.22,322.47H573.6c0-101.56-63.66-188.26-153.26-222.37V322.47H335.75V0A322.48,322.48,0,0,1,658.22,322.47Z"/><path class="cls-1" d="M322.47,433.43V658.22C144.38,658.22,0,513.84,0,335.75H322.47V407H104.2A152.37,152.37,0,0,0,256.57,559.38V503.55H202.19V433.43Z"/></g></g></svg>