<svg width="190" height="190" viewBox="0 0 190 190" fill="none" xmlns="http://www.w3.org/2000/svg">
<mask id="mask0" mask-type="alpha" maskUnits="userSpaceOnUse" x="0" y="0" width="190" height="190">
<rect width="190" height="190" fill="#C4C4C4"/>
</mask>
<g mask="url(#mask0)">
<circle cx="240.5" cy="240.5" r="239.5" stroke="#FBDC84" stroke-width="2"/>
<path d="M417.554 240.5C417.554 339.221 337.902 419.242 239.656 419.242C141.41 419.242 61.7577 339.221 61.7577 240.5C61.7577 141.779 141.41 61.7578 239.656 61.7578C337.902 61.7578 417.554 141.779 417.554 240.5Z" stroke="#FBDC84" stroke-width="2"/>
<path d="M378.737 240.5C378.737 317.784 316.463 380.424 239.656 380.424C162.85 380.424 100.575 317.784 100.575 240.5C100.575 163.216 162.85 100.575 239.656 100.575C316.463 100.575 378.737 163.216 378.737 240.5Z" stroke="#FBDC84" stroke-width="2"/>
<circle cx="240.5" cy="240.5" r="212.496" stroke="#FBDC84" stroke-width="2"/>
<circle cx="240.5" cy="240.5" r="212.496" stroke="#FBDC84" stroke-width="2"/>
<circle cx="240.5" cy="240.5" r="212.496" stroke="#FBDC84" stroke-width="2"/>
</g>
</svg>
