<svg viewBox="0 0 294 293" fill="none" xmlns="http://www.w3.org/2000/svg">
<mask id="mask0" mask-type="alpha" maskUnits="userSpaceOnUse" x="0" y="0" width="294" height="294">
<rect width="294" height="294" fill="#C4C4C4"/>
</mask>
<g mask="url(#mask0)">
<circle cx="250.5" cy="245.5" r="239.5" stroke="#FBDC84" stroke-width="2"/>
<path d="M427.554 245.5C427.554 344.221 347.902 424.242 249.656 424.242C151.41 424.242 71.7578 344.221 71.7578 245.5C71.7578 146.779 151.41 66.7578 249.656 66.7578C347.902 66.7578 427.554 146.779 427.554 245.5Z" stroke="#FBDC84" stroke-width="2"/>
<path d="M388.737 245.5C388.737 322.784 326.462 385.424 249.656 385.424C172.849 385.424 110.575 322.784 110.575 245.5C110.575 168.216 172.849 105.575 249.656 105.575C326.462 105.575 388.737 168.216 388.737 245.5Z" stroke="#FBDC84" stroke-width="2"/>
<circle cx="250.5" cy="245.5" r="212.496" stroke="#FBDC84" stroke-width="2"/>
<circle cx="250.5" cy="245.5" r="212.496" stroke="#FBDC84" stroke-width="2"/>
<circle cx="250.5" cy="245.5" r="212.496" stroke="#FBDC84" stroke-width="2"/>
<path fill-rule="evenodd" clip-rule="evenodd" d="M230.893 245.5L217.589 232.196L237.196 212.589L250.5 225.893L263.803 212.589L283.41 232.196L270.107 245.5L283.41 258.803L263.803 278.41L250.5 265.107L237.196 278.41L217.589 258.803L230.893 245.5Z" fill="#FBDC84"/>
</g>
</svg>
