<svg viewBox="0 0 377 54" fill="none" xmlns="http://www.w3.org/2000/svg">
<path d="M28.1604 0H38.1176L9.95726 54H0L28.1604 0Z" fill="#FBDC84"/>
<path d="M76.9807 0H87.3529L58.0191 54H47.647L76.9807 0Z" fill="#FBDC84"/>
<path d="M125.043 0H135L106.84 54H96.8823L125.043 0Z" fill="#FBDC84"/>
<path d="M172.69 0H182.647L154.487 54H144.529L172.69 0Z" fill="#FBDC84"/>
<path d="M221.925 0H231.882L203.722 54H193.765L221.925 0Z" fill="#FBDC84"/>
<path d="M269.572 0H279.53L251.369 54H241.412L269.572 0Z" fill="#FBDC84"/>
<path d="M318.392 0H328.764L299.431 54H289.059L318.392 0Z" fill="#FBDC84"/>
<path d="M366.454 0H376.412L348.251 54H338.294L366.454 0Z" fill="#FBDC84"/>
</svg>
