<svg viewBox="0 0 247 156" fill="none" xmlns="http://www.w3.org/2000/svg">
<circle cx="54.5426" cy="8.57096" r="8.57096" fill="white" fill-opacity="0.3"/>
<circle cx="100.514" cy="8.57096" r="8.57096" fill="white" fill-opacity="0.3"/>
<circle cx="146.486" cy="8.57096" r="8.57096" fill="white" fill-opacity="0.3"/>
<circle cx="192.457" cy="8.57096" r="8.57096" fill="white" fill-opacity="0.3"/>
<circle cx="238.429" cy="8.57096" r="8.57096" fill="white" fill-opacity="0.3"/>
<circle cx="54.5426" cy="54.5425" r="8.57096" fill="white" fill-opacity="0.3"/>
<circle cx="100.514" cy="54.5425" r="8.57096" fill="white" fill-opacity="0.3"/>
<circle cx="146.486" cy="54.5425" r="8.57096" fill="white" fill-opacity="0.3"/>
<circle cx="192.457" cy="54.5425" r="8.57096" fill="white" fill-opacity="0.3"/>
<circle cx="238.429" cy="54.5425" r="8.57096" fill="white" fill-opacity="0.3"/>
<circle cx="54.5426" cy="100.514" r="8.57096" fill="white" fill-opacity="0.3"/>
<circle cx="100.514" cy="100.514" r="8.57096" fill="white" fill-opacity="0.3"/>
<circle cx="146.486" cy="100.514" r="8.57096" fill="white" fill-opacity="0.3"/>
<circle cx="192.457" cy="100.514" r="8.57096" fill="white" fill-opacity="0.3"/>
<circle cx="238.429" cy="100.514" r="8.57096" fill="white" fill-opacity="0.3"/>
<circle cx="54.5426" cy="146.486" r="8.57096" fill="white" fill-opacity="0.3"/>
<circle cx="100.514" cy="146.486" r="8.57096" fill="white" fill-opacity="0.3"/>
<circle cx="146.486" cy="146.486" r="8.57096" fill="white" fill-opacity="0.3"/>
<circle cx="192.457" cy="146.486" r="8.57096" fill="white" fill-opacity="0.3"/>
<circle cx="238.429" cy="146.486" r="8.57096" fill="white" fill-opacity="0.3"/>
<circle cx="8.57096" cy="8.57096" r="8.57096" fill="white" fill-opacity="0.3"/>
<circle cx="8.57096" cy="54.5425" r="8.57096" fill="white" fill-opacity="0.3"/>
<circle cx="8.57096" cy="100.514" r="8.57096" fill="white" fill-opacity="0.3"/>
<circle cx="8.57096" cy="146.486" r="8.57096" fill="white" fill-opacity="0.3"/>
</svg>
