<svg width="32" height="32" viewBox="0 0 32 32" fill="none" xmlns="http://www.w3.org/2000/svg">
<path d="M23.2581 1H8.41935C4.32176 1 1 4.32176 1 8.41935V23.2581C1 27.3557 4.32176 30.6774 8.41935 30.6774H23.2581C27.3557 30.6774 30.6774 27.3557 30.6774 23.2581V8.41935C30.6774 4.32176 27.3557 1 23.2581 1Z" stroke="#FDFDFD" stroke-width="2" stroke-linecap="round" stroke-linejoin="round"/>
<path d="M15.8389 21.4034C18.9121 21.4034 21.4034 18.9121 21.4034 15.8389C21.4034 12.7657 18.9121 10.2744 15.8389 10.2744C12.7657 10.2744 10.2744 12.7657 10.2744 15.8389C10.2744 18.9121 12.7657 21.4034 15.8389 21.4034Z" stroke="#FDFDFD" stroke-width="2" stroke-linecap="round" stroke-linejoin="round"/>
<path d="M24.1855 7.4917V7.4942" stroke="#FDFDFD" stroke-width="3" stroke-linecap="round" stroke-linejoin="round"/>
</svg>
