<svg xmlns="http://www.w3.org/2000/svg" viewBox="0 0 671.42 671.42"><defs><style>.cls-1{fill:#fff;}</style></defs><g id="Layer_2" data-name="Layer 2"><g id="Layer_1-2" data-name="Layer 1"><path class="cls-1" d="M0,322.54H322.47V.07C144.38.07,0,144.45,0,322.54Zm251.2-65.9H98.84A152.37,152.37,0,0,1,251.2,104.27Z"/><path class="cls-1" d="M671.42,349H349V671.42C527,671.42,671.42,527,671.42,349Zm-251.2,65.9H572.58A152.37,152.37,0,0,1,420.22,567.22Z"/><path class="cls-1" d="M671.42,322.47H586.8c0-101.56-63.66-188.26-153.26-222.37V322.47H349V0A322.48,322.48,0,0,1,671.42,322.47Z"/><path class="cls-1" d="M322.47,446.63V671.42C144.38,671.42,0,527,0,349H322.47v71.27H104.2A152.37,152.37,0,0,0,256.57,572.58V516.75H202.19V446.63Z"/></g></g></svg>