<svg viewBox="0 0 146 160" fill="none" xmlns="http://www.w3.org/2000/svg">
<path d="M45.1298 42.3635H21.9906C17.8993 42.3635 13.9756 44.1521 11.0827 47.3358C8.1897 50.5194 6.56445 54.8374 6.56445 59.3398V135.733C6.56445 140.235 8.1897 144.553 11.0827 147.737C13.9756 150.921 17.8993 152.709 21.9906 152.709H91.4083C95.4996 152.709 99.4233 150.921 102.316 147.737C105.209 144.553 106.834 140.235 106.834 135.733V110.269" stroke="#FAD363" stroke-width="13" stroke-linecap="round" stroke-linejoin="round"/>
<path d="M45.1299 110.269H68.2691L133.83 38.1194C136.899 34.7426 138.623 30.1627 138.623 25.3872C138.623 20.6117 136.899 16.0318 133.83 12.655C130.762 9.27817 126.6 7.3811 122.261 7.3811C117.921 7.3811 113.759 9.27817 110.691 12.655L45.1299 84.8043V110.269Z" stroke="#FAD363" stroke-width="13" stroke-linecap="round" stroke-linejoin="round"/>
<path d="M99.1206 25.3875L122.26 50.8519" stroke="#FAD363" stroke-width="13" stroke-linecap="round" stroke-linejoin="round"/>
</svg>
