<svg width="32" height="32" viewBox="0 0 32 32" fill="none" xmlns="http://www.w3.org/2000/svg">
<path d="M26.9677 1H4.70968C2.66088 1 1 2.66088 1 4.70968V26.9677C1 29.0165 2.66088 30.6774 4.70968 30.6774H26.9677C29.0165 30.6774 30.6774 29.0165 30.6774 26.9677V4.70968C30.6774 2.66088 29.0165 1 26.9677 1Z" stroke="#FDFDFD" stroke-width="2" stroke-linecap="round" stroke-linejoin="round"/>
<path d="M25.4837 8.52693C24.5192 9.00318 23.5739 9.1966 22.5901 9.48915C21.5089 8.25965 19.9059 8.19161 18.3656 8.77283C16.8252 9.35405 15.8163 10.775 15.8385 12.405V13.3769C12.7087 13.4576 9.92121 12.021 8.12239 9.48915C8.12239 9.48915 4.08878 16.7136 11.9805 20.1805C10.1749 21.3925 8.37413 22.2099 6.19336 22.1244C9.38398 23.8768 12.8611 24.4794 15.8713 23.5988C19.3243 22.588 22.1619 19.9803 23.2508 16.074C23.5757 14.886 23.737 13.6586 23.7302 12.4263C23.7283 12.1843 25.1866 9.73213 25.4837 8.52596V8.52693Z" stroke="#FDFDFD" stroke-width="2" stroke-linecap="round" stroke-linejoin="round"/>
</svg>
