<svg width="32" height="32" viewBox="0 0 32 32" fill="none" xmlns="http://www.w3.org/2000/svg">
<path d="M26.9677 1H4.70968C2.66088 1 1 2.66088 1 4.70968V26.9677C1 29.0165 2.66088 30.6774 4.70968 30.6774H26.9677C29.0165 30.6774 30.6774 29.0165 30.6774 26.9677V4.70968C30.6774 2.66088 29.0165 1 26.9677 1Z" stroke="#FDFDFD" stroke-width="2" stroke-linecap="round" stroke-linejoin="round"/>
<path d="M6.93555 22.2689V9.90332H11.5726C12.3925 9.90332 13.1788 10.229 13.7586 10.8088C14.3383 11.3885 14.664 12.1748 14.664 12.9947C14.664 13.8146 14.3383 14.6009 13.7586 15.1807C13.1788 15.7604 12.3925 16.0861 11.5726 16.0861C12.3925 16.0861 13.1788 16.4118 13.7586 16.9916C14.3383 17.5713 14.664 18.3576 14.664 19.1775C14.664 19.9974 14.3383 20.7837 13.7586 21.3634C13.1788 21.9432 12.3925 22.2689 11.5726 22.2689H6.93555Z" stroke="#FDFDFD" stroke-width="2" stroke-linecap="round" stroke-linejoin="round"/>
<path d="M6.93555 16.0859H11.5726" stroke="#FDFDFD" stroke-width="2" stroke-linecap="round" stroke-linejoin="round"/>
<path d="M18.2705 17.1169H25.4838C25.4838 16.1603 25.1038 15.243 24.4274 14.5666C23.751 13.8902 22.8337 13.5103 21.8771 13.5103C20.9206 13.5103 20.0032 13.8902 19.3269 14.5666C18.6505 15.243 18.2705 16.1603 18.2705 17.1169V19.1778C18.3768 19.9493 18.7299 20.6656 19.2771 21.2197C19.8243 21.7739 20.5362 22.136 21.3063 22.2519C22.0763 22.3679 22.8633 22.2315 23.5494 21.8631C24.2355 21.4948 24.784 20.9142 25.1128 20.2083" stroke="#FDFDFD" stroke-width="2" stroke-linecap="round" stroke-linejoin="round"/>
<path d="M20.3315 9.90332H23.4229" stroke="#FDFDFD" stroke-width="2" stroke-linecap="round" stroke-linejoin="round"/>
</svg>
