<svg width="32" height="32" viewBox="0 0 32 32" fill="none" xmlns="http://www.w3.org/2000/svg">
<path d="M10.645 14.4786V17.9409H13.2755V24.0001H16.7828V17.9409H19.4133L20.2902 14.4786H16.7828V12.7474C16.7828 12.5178 16.8752 12.2977 17.0397 12.1353C17.2041 11.973 17.4271 11.8818 17.6597 11.8818H20.2902V8.41943H17.6597C16.4969 8.41943 15.3818 8.87541 14.5596 9.68706C13.7374 10.4987 13.2755 11.5995 13.2755 12.7474V14.4786H10.645Z" stroke="#FDFDFD" stroke-width="2" stroke-linecap="round" stroke-linejoin="round"/>
<path d="M26.9677 1H4.70968C2.66088 1 1 2.66088 1 4.70968V26.9677C1 29.0165 2.66088 30.6774 4.70968 30.6774H26.9677C29.0165 30.6774 30.6774 29.0165 30.6774 26.9677V4.70968C30.6774 2.66088 29.0165 1 26.9677 1Z" stroke="#FDFDFD" stroke-width="2" stroke-linecap="round" stroke-linejoin="round"/>
</svg>
