<svg width="32" height="32" viewBox="0 0 32 32" fill="none" xmlns="http://www.w3.org/2000/svg">
<path d="M26.9677 1H4.70968C2.66088 1 1 2.66088 1 4.70968V26.9677C1 29.0165 2.66088 30.6774 4.70968 30.6774H26.9677C29.0165 30.6774 30.6774 29.0165 30.6774 26.9677V4.70968C30.6774 2.66088 29.0165 1 26.9677 1Z" stroke="#FDFDFD" stroke-width="2" stroke-linecap="round" stroke-linejoin="round"/>
<path d="M8.41943 13.9839V23.2581" stroke="#FDFDFD" stroke-width="2" stroke-linecap="round" stroke-linejoin="round"/>
<path d="M8.41943 8.41943V8.43887" stroke="#FDFDFD" stroke-width="2" stroke-linecap="round" stroke-linejoin="round"/>
<path d="M15.8389 23.2581V13.9839" stroke="#FDFDFD" stroke-width="2" stroke-linecap="round" stroke-linejoin="round"/>
<path d="M23.2582 23.2581V17.6936C23.2582 16.7097 22.8674 15.7661 22.1717 15.0704C21.476 14.3747 20.5324 13.9839 19.5485 13.9839C18.5647 13.9839 17.6211 14.3747 16.9254 15.0704C16.2297 15.7661 15.8389 16.7097 15.8389 17.6936" stroke="#FDFDFD" stroke-width="2" stroke-linecap="round" stroke-linejoin="round"/>
</svg>
